<svg width="77" height="76" viewBox="0 0 77 76" fill="none" xmlns="http://www.w3.org/2000/svg">
<g clip-path="url(#clip0_29_441)">
<path d="M70.6162 15.7451C75.6659 10.6971 75.973 3.04446 75.9833 2.72126L76.0611 0.359161L73.6984 0.436362C73.3752 0.447308 65.7192 0.754381 60.6695 5.80236C56.5485 9.92163 55.5863 15.7762 55.3657 17.9654L52.5813 20.7452C52.6833 20.0366 52.7426 19.309 52.7426 18.5629C52.7426 11.4247 47.5466 5.79602 47.3253 5.55981L45.7093 3.8349L44.0933 5.55981C43.872 5.79602 38.676 11.4247 38.676 18.5629C38.676 23.7814 41.4512 28.1904 43.0315 30.2783L39.9815 33.3225C40.0754 32.641 40.1301 31.941 40.1301 31.2249C40.1301 24.0862 34.9335 18.4574 34.7123 18.2212L33.0968 16.4963L31.4808 18.2212C31.2596 18.4574 26.063 24.0862 26.063 31.2249C26.063 36.4088 28.8024 40.7948 30.3879 42.8994L27.2123 46.0692C27.3051 45.394 27.3581 44.7009 27.3581 43.9923C27.3581 36.8536 22.1615 31.2249 21.9402 30.9887L20.3242 29.2638L18.7088 30.9887C18.4875 31.2249 13.2909 36.8536 13.2909 43.9923C13.2909 49.1676 16.0217 53.5479 17.6078 55.6565L1.14801 72.088L4.27635 75.2198L21.0812 58.4443C22.7699 59.7222 25.9812 61.7812 29.9132 62.5221C29.545 60.8871 29.3497 59.1869 29.3497 57.4419C29.3497 54.4074 29.9385 51.5078 31.0061 48.8502C30.8851 48.8652 30.7647 48.8807 30.6449 48.8974L31.2291 48.3144C33.5739 42.8787 37.9455 38.5145 43.387 36.179C43.3864 36.179 43.3864 36.179 43.3858 36.179L46.4306 33.1393C47.0257 33.5818 47.7879 34.1032 48.6873 34.628C49.9231 34.4229 51.1911 34.3146 52.4839 34.3146C56.1302 34.3146 59.5812 35.1632 62.6519 36.6721C67.4492 35.2445 70.8242 32.1334 71.0057 31.9635L72.7311 30.3486L71.0057 28.7332C70.77 28.5119 65.139 23.3176 57.998 23.3176C57.3706 23.3176 56.7559 23.3597 56.155 23.4328L58.5562 21.0356C60.8256 20.7953 66.5609 19.7987 70.6162 15.7451Z" fill="url(#paint0_linear_29_441)"/>
<path d="M52.7426 53.8722C50.7734 53.8722 49.1712 55.4733 49.1712 57.4419C49.1712 59.4105 50.7734 61.0121 52.7426 61.0121C54.7118 61.0121 56.314 59.4105 56.314 57.4419C56.314 55.4733 54.7118 53.8722 52.7426 53.8722Z" fill="#828282"/>
<path d="M52.4839 39.0117C42.3177 39.0117 34.0469 47.2797 34.0469 57.4419C34.0469 67.6047 42.3177 75.8726 52.4839 75.8726C62.6502 75.8726 70.921 67.6047 70.921 57.4419C70.921 47.2797 62.6502 39.0117 52.4839 39.0117ZM61.4668 51.8506L59.7414 53.5755C60.0288 54.094 60.2599 54.6483 60.4275 55.229H62.8662V59.6548H60.4275C60.2599 60.2355 60.0288 60.7897 59.7414 61.3082L61.4668 63.0331L58.3362 66.1626L56.6107 64.4377C56.0916 64.7258 55.5374 64.9562 54.9567 65.1239V67.562H50.5292V65.1239C49.9479 64.9562 49.3936 64.7258 48.8751 64.4377L47.1491 66.1626L44.0184 63.0331L45.7445 61.3082C45.4564 60.7897 45.2254 60.2355 45.0577 59.6548H42.619V55.229H45.0577C45.2254 54.6483 45.4564 54.094 45.7445 53.5755L44.0184 51.8506L47.1491 48.7211L48.8751 50.446C49.3936 50.1586 49.9479 49.9275 50.5292 49.7599V47.3217H54.9567V49.7599C55.5374 49.9275 56.0916 50.1586 56.6107 50.446L58.3362 48.7211L61.4668 51.8506Z" fill="#828282"/>
</g>
<defs>
<linearGradient id="paint0_linear_29_441" x1="1.14801" y1="0.359161" x2="81.7509" y2="7.09074" gradientUnits="userSpaceOnUse">
<stop stop-color="#48B760"/>
<stop offset="1" stop-color="#6BB748"/>
</linearGradient>
<clipPath id="clip0_29_441">
<rect width="75.5134" height="75.5134" fill="white" transform="translate(0.853088 0.359192)"/>
</clipPath>
</defs>
</svg>
